<svg xmlns="http://www.w3.org/2000/svg" viewBox="0 0 164.2 29.7"><style>.st0{fill:#fff}.st1,.st2{fill:#80b5d2}.st2{opacity:.5}.st3{fill:#1b6f8d}.st4{fill:#639cb6}.st5{fill:#3a5d6f}.st6{fill:#bfbebe}.st7{fill:#dfdfde}.st8{fill:#a3a3a3}.st9{fill:#676767}.st10{fill:#22282b}.st11{fill:#69c8c9}.st12{fill:#be9b3f}.st13{fill:#21c8cc}.st14{fill:#4cbd99}.st15{fill:#38baa1}.st16{fill:#6cc8c5}.st17{fill:#50baba}.st18{fill:#d12a56}.st19{fill:#de6888}.st20{fill:#f44e72}.st21{fill:#f74d82}.st22{fill:#acb8bf}.st23{fill:#23292c}.st24{fill:#91a9b5}.st25{fill:#ddebf2}.st26{fill:#af4a8f}.st27{fill:#f77669}.st28{fill:#fccc54}.st29{fill:#48aee0}.st30{fill:#f7c4d1}.st31{fill:#991638}.st32{fill:#addbd8}.st33{fill:#158484}.st34{fill:#1fb2b2}.st35{fill:#005b5b}.st36{fill:#ddc893}.st37{fill:#9a771b}.st38{fill:#b58f24}.st39{fill:#5e3e19}.st40{fill:#38bda1}.st41{opacity:.3;fill:#4cbd99}.st42{fill:#167c64}.st43{fill:#36a88d}.st44{fill:#1f493a}.st45{display:none}.st46{display:inline}.st47{fill:#e0ff00}</style><g id="Layer_1"><path class="st10" d="M17.8 29.3l-4-15.6h-.1l-4 15.6H6.3L0 9.6h3.6L8 25.7h.1l4-16.1h3.5l4.1 16.1h.1l4.4-16.1h3.3l-6.3 19.6h-3.4zM43.5 28c-1.5 1.1-3.3 1.7-5.5 1.7-1.6 0-2.9-.3-4.1-.8-1.2-.5-2.1-1.2-2.9-2.1-.8-.9-1.4-2-1.8-3.3-.4-1.3-.6-2.6-.7-4.1 0-1.5.2-2.9.7-4.1.5-1.2 1.1-2.3 1.9-3.2.8-.9 1.8-1.6 2.9-2.1 1.1-.5 2.4-.8 3.7-.8 1.7 0 3.2.4 4.4 1.1 1.2.7 2.1 1.6 2.8 2.8.7 1.1 1.2 2.3 1.4 3.6.3 1.3.4 2.6.3 3.8H32c0 .9.1 1.7.3 2.5.2.8.6 1.5 1.1 2.1.5.6 1.2 1.1 1.9 1.4.8.4 1.7.5 2.8.5 1.4 0 2.5-.3 3.4-1 .9-.6 1.4-1.6 1.7-2.9h3.2c-.4 2.1-1.4 3.8-2.9 4.9zm-.7-12.6c-.3-.7-.7-1.3-1.2-1.8s-1.1-.9-1.7-1.2c-.7-.3-1.4-.4-2.2-.4-.8 0-1.6.1-2.3.4-.7.3-1.2.7-1.7 1.2s-.9 1.1-1.1 1.8c-.3.7-.4 1.4-.5 2.1h11.3c-.2-.7-.3-1.4-.6-2.1zm9.6-13.3v10.1h.1c.5-1.1 1.4-1.9 2.5-2.4s2.4-.7 3.8-.7c1.5 0 2.8.3 4 .8 1.1.6 2.1 1.3 2.8 2.3.7 1 1.3 2 1.7 3.3.4 1.2.6 2.6.6 4s-.2 2.7-.6 4c-.4 1.2-.9 2.3-1.7 3.2-.7.9-1.7 1.7-2.8 2.2-1.1.5-2.4.8-3.9.8-.5 0-1-.1-1.6-.2-.6-.1-1.2-.3-1.8-.5-.6-.2-1.1-.5-1.7-.9-.5-.4-1-.9-1.3-1.5h-.1v2.6h-3.2V2.1h3.2zM64 16.6c-.2-.9-.6-1.7-1.1-2.3-.5-.7-1.1-1.2-1.9-1.6-.8-.4-1.7-.6-2.7-.6-1.1 0-2 .2-2.8.6-.8.4-1.4 1-1.9 1.7s-.8 1.5-1 2.4c-.2.9-.3 1.8-.3 2.7 0 1 .1 1.9.3 2.8.2.9.6 1.7 1.1 2.4.5.7 1.1 1.2 1.9 1.7.8.4 1.7.6 2.9.6 1.1 0 2-.2 2.8-.6.7-.4 1.3-1 1.8-1.7s.8-1.5 1-2.4c.2-.9.3-1.8.3-2.8 0-1.1-.1-2-.4-2.9z"/><path class="st0" d="M86.9 29.3v-2.7h-.1c-.5 1.1-1.4 1.9-2.5 2.4s-2.4.7-3.8.7c-1.5 0-2.8-.3-4-.8-1.1-.6-2.1-1.3-2.8-2.2-.7-.9-1.3-2-1.7-3.3-.4-1.2-.6-2.6-.6-4s.2-2.7.6-4c.4-1.2.9-2.3 1.7-3.2.7-.9 1.7-1.7 2.8-2.2 1.1-.5 2.4-.8 3.9-.8.5 0 1.1.1 1.6.2.6.1 1.2.3 1.7.5.6.2 1.1.6 1.7 1 .5.4 1 .9 1.3 1.5h.1V2.1H90v27.1h-3.1zm-11.6-7c.2.9.6 1.7 1.1 2.3.5.7 1.1 1.2 1.9 1.6.8.4 1.7.6 2.7.6 1.1 0 2-.2 2.8-.6.8-.4 1.4-1 1.9-1.7s.8-1.5 1-2.4c.2-.9.3-1.8.3-2.7 0-1-.1-1.9-.3-2.8-.2-.9-.6-1.7-1.1-2.4-.5-.7-1.1-1.2-1.9-1.7-.8-.4-1.7-.6-2.8-.6-1.1 0-2 .2-2.8.6-.8.4-1.4 1-1.8 1.7-.5.7-.8 1.5-1 2.4-.2.9-.3 1.8-.3 2.8-.1 1.1.1 2 .3 2.9zm32.8 5.7c-1.5 1.1-3.3 1.7-5.5 1.7-1.6 0-2.9-.3-4.1-.8-1.2-.5-2.1-1.2-2.9-2.1-.8-.9-1.4-2-1.8-3.3-.4-1.3-.6-2.6-.7-4.1 0-1.5.2-2.9.7-4.1.5-1.2 1.1-2.3 1.9-3.2.8-.9 1.8-1.6 2.9-2.1 1.1-.5 2.4-.8 3.7-.8 1.7 0 3.2.4 4.4 1.1 1.2.7 2.1 1.6 2.8 2.8.7 1.1 1.2 2.3 1.4 3.6.3 1.3.4 2.6.3 3.8H96.5c0 .9.1 1.7.3 2.5.2.8.6 1.5 1.1 2.1.5.6 1.2 1.1 1.9 1.4.8.4 1.7.5 2.8.5 1.4 0 2.5-.3 3.4-1 .9-.6 1.4-1.6 1.7-2.9h3.2c-.4 2.1-1.4 3.8-2.8 4.9zm-.8-12.6c-.3-.7-.7-1.3-1.2-1.8s-1.1-.9-1.7-1.2c-.7-.3-1.4-.4-2.2-.4-.8 0-1.6.1-2.3.4-.7.3-1.2.7-1.7 1.2s-.9 1.1-1.1 1.8c-.3.7-.4 1.4-.5 2.1h11.3c-.1-.7-.3-1.4-.6-2.1zm-4-15.4l-3.6 6.2h2.4l5.4-6.2h-4.2zm22.1 13c-.8-.7-1.9-1-3.3-1-1.2 0-2.1.2-2.9.6-.8.4-1.4 1-1.9 1.7s-.8 1.5-1 2.5c-.2.9-.3 1.9-.3 2.9 0 .9.1 1.8.3 2.7.2.9.6 1.6 1 2.3.5.7 1.1 1.2 1.8 1.6.7.4 1.6.6 2.6.6 1.6 0 2.8-.4 3.7-1.3.9-.8 1.4-2 1.7-3.5h3.3c-.4 2.4-1.3 4.3-2.7 5.6-1.5 1.3-3.4 2-5.9 2-1.5 0-2.8-.2-4-.7-1.2-.5-2.1-1.2-2.9-2.1-.8-.9-1.4-1.9-1.7-3.2-.4-1.2-.6-2.6-.6-4 0-1.5.2-2.8.6-4.1.4-1.3 1-2.4 1.7-3.3.8-1 1.7-1.7 2.9-2.2 1.2-.5 2.5-.8 4.1-.8 1.1 0 2.2.1 3.1.4 1 .3 1.8.7 2.6 1.2.7.6 1.4 1.3 1.8 2.1.5.8.8 1.9.9 3H127c-.3-1.3-.8-2.3-1.6-3zm7.2 2.4c.4-1.3 1-2.3 1.8-3.3.8-.9 1.8-1.7 3-2.2 1.2-.5 2.6-.8 4.1-.8 1.6 0 2.9.3 4.1.8 1.2.5 2.2 1.3 3 2.2.8.9 1.4 2 1.8 3.3.4 1.3.6 2.6.6 4s-.2 2.8-.6 4c-.4 1.2-1 2.3-1.8 3.2-.8.9-1.8 1.6-3 2.2-1.2.5-2.6.8-4.1.8-1.5 0-2.9-.3-4.1-.8-1.2-.5-2.2-1.2-3-2.2-.8-.9-1.4-2-1.8-3.2-.4-1.2-.6-2.6-.6-4s.2-2.7.6-4zm3.3 7.2c.3.9.8 1.7 1.3 2.3.6.6 1.2 1.1 2 1.4.7.3 1.5.5 2.4.5.8 0 1.6-.2 2.4-.5.7-.3 1.4-.8 2-1.4.6-.6 1-1.4 1.3-2.3.3-.9.5-2 .5-3.2 0-1.2-.2-2.2-.5-3.2-.3-.9-.8-1.7-1.3-2.3-.6-.6-1.2-1.1-2-1.4-.7-.3-1.5-.5-2.4-.5-.8 0-1.6.2-2.4.5-.7.3-1.4.8-2 1.4-.6.6-1 1.4-1.3 2.3-.3.9-.5 2-.5 3.2 0 1.2.2 2.3.5 3.2zm21-13v4.1h.1c.8-1.6 1.7-2.8 2.9-3.5 1.1-.8 2.6-1.1 4.3-1.1v3.4c-1.3 0-2.4.2-3.3.5-.9.4-1.6.9-2.2 1.6-.6.7-1 1.5-1.2 2.5-.3 1-.4 2.1-.4 3.4v8.7h-3.2V9.6h3z"/></g></svg>